<?xml version="1.0" encoding="UTF-8" standalone="no"?>
<!-- Created with Inkscape (http://www.inkscape.org/) -->

<svg
   width="512"
   height="512"
   viewBox="0 0 135.46666 135.46667"
   version="1.1"
   id="svg1"
   sodipodi:docname="globe.svg"
   inkscape:version="1.3.2 (091e20ef0f, 2023-11-25)"
   xmlns:inkscape="http://www.inkscape.org/namespaces/inkscape"
   xmlns:sodipodi="http://sodipodi.sourceforge.net/DTD/sodipodi-0.dtd"
   xmlns="http://www.w3.org/2000/svg"
   xmlns:svg="http://www.w3.org/2000/svg">
  <sodipodi:namedview
     id="namedview1"
     pagecolor="#ffffff"
     bordercolor="#000000"
     borderopacity="0.25"
     inkscape:showpageshadow="2"
     inkscape:pageopacity="0.0"
     inkscape:pagecheckerboard="0"
     inkscape:deskcolor="#d1d1d1"
     inkscape:document-units="mm"
     inkscape:zoom="1.5607744"
     inkscape:cx="238.34322"
     inkscape:cy="235.78039"
     inkscape:window-width="1920"
     inkscape:window-height="1080"
     inkscape:window-x="0"
     inkscape:window-y="0"
     inkscape:window-maximized="0"
     inkscape:current-layer="layer1" />
  <defs
     id="defs1">
    <inkscape:path-effect
       effect="powerclip"
       id="path-effect3"
       is_visible="true"
       lpeversion="1"
       inverse="true"
       flatten="false"
       hide_clip="false"
       message="Use fill-rule evenodd on &lt;b&gt;fill and stroke&lt;/b&gt; dialog if no flatten result after convert clip to paths." />
    <clipPath
       clipPathUnits="userSpaceOnUse"
       id="clipPath2">
      <circle
         style="display:none;fill:#00ffff;fill-opacity:0.14775;stroke:#000000;stroke-width:0.281271"
         id="circle3"
         cx="67.733345"
         cy="67.73333"
         r="67.592697"
         d="M 135.32604,67.73333 A 67.592697,67.592697 0 0 1 67.733345,135.32603 67.592697,67.592697 0 0 1 0.14064789,67.73333 67.592697,67.592697 0 0 1 67.733345,0.14063263 67.592697,67.592697 0 0 1 135.32604,67.73333 Z" />
      <path
         id="lpe_path-effect3"
         style="fill:#00ffff;fill-opacity:0.14775;stroke:#000000;stroke-width:0.281271"
         class="powerclip"
         d="M -18.706663,-10.484255 H 152.94376 V 144.40945 H -18.706663 Z M 135.32604,67.73333 A 67.592697,67.592697 0 0 0 67.733345,0.14063263 67.592697,67.592697 0 0 0 0.14064789,67.73333 67.592697,67.592697 0 0 0 67.733345,135.32603 67.592697,67.592697 0 0 0 135.32604,67.73333 Z" />
    </clipPath>
  </defs>
  <g
     inkscape:label="Layer 1"
     inkscape:groupmode="layer"
     id="layer1">
    <path
       style="fill:#ffffff;fill-opacity:1;stroke:none;stroke-width:0.264999;stroke-dasharray:none;stroke-opacity:1"
       id="rect2"
       width="161.65042"
       height="144.89371"
       x="-13.706663"
       y="-5.4842548"
       clip-path="url(#clipPath2)"
       inkscape:path-effect="#path-effect3"
       sodipodi:type="rect"
       d="M -13.706663,-5.4842548 H 147.94376 V 139.40945 H -13.706663 Z" />
    <circle
       style="fill:#009c9c;fill-opacity:0.48557812;stroke:#000000;stroke-width:0.28127"
       id="path1"
       cx="67.733337"
       cy="67.73333"
       r="67.592697" />
    <path
       id="rect1"
       style="fill:#a04603;stroke:#000000;stroke-width:0.207894;fill-opacity:1"
       d="m 13.227687,107.81153 c 0,0 0.338677,8.8874 54.505584,8.8874 54.166969,0 54.505689,-8.8874 54.505689,-8.8874 v 18.66467 c 0,0 0.30552,8.8876 -54.505689,8.8876 -54.811107,0 -54.505584,-8.8876 -54.505584,-8.8876 z"
       sodipodi:nodetypes="czcczcc" />
  </g>
</svg>
